<svg width="1760" height="1885" viewBox="0 0 1760 1885" fill="none" xmlns="http://www.w3.org/2000/svg">
<g id="Background - Work" clip-path="url(#clip0)">
<rect width="1760" height="1885" fill="white"/>
<g id="Group">
<path id="Polygon" d="M338.25 0L631.183 507.375L45.3169 507.375L338.25 0Z" transform="translate(792 103)" fill="#D4C250" fill-opacity="0.15"/>
<path id="Polygon_2" d="M338.25 0L631.183 507.375L45.3169 507.375L338.25 0Z" transform="translate(1006)" fill="#D4C250" fill-opacity="0.15"/>
<path id="Polygon_3" d="M338.25 0L631.183 507.375L45.3169 507.375L338.25 0Z" transform="translate(1083 319)" fill="#D4C250" fill-opacity="0.15"/>
<path id="Polygon_4" d="M338.25 0L631.183 507.375L45.3169 507.375L338.25 0Z" transform="translate(857.5 707.5)" fill="#D4C250" fill-opacity="0.15"/>
</g>
<g id="Group_2">
<path id="Polygon_5" d="M338.25 0L631.183 507.375L45.3169 507.375L338.25 0Z" transform="translate(374 707)" fill="#D4C250" fill-opacity="0.15"/>
<path id="Polygon_6" d="M338.25 0L631.183 507.375L45.3169 507.375L338.25 0Z" transform="translate(588 604)" fill="#D4C250" fill-opacity="0.15"/>
<path id="Polygon_7" d="M338.25 0L631.183 507.375L45.3169 507.375L338.25 0Z" transform="translate(665 923)" fill="#D4C250" fill-opacity="0.15"/>
<path id="Polygon_8" d="M338.25 0L631.183 507.375L45.3169 507.375L338.25 0Z" transform="translate(439.5 1311.5)" fill="#D4C250" fill-opacity="0.15"/>
</g>
</g>
<defs>
<clipPath id="clip0">
<rect width="1760" height="1885" fill="white"/>
</clipPath>
</defs>
</svg>
